<svg data-testid="desktop" fill="#ff8000" height="46" viewBox="0 0 110 36" xmlns="http://www.w3.org/2000/svg" class="sc-efccdcc4-1 kbEzx"><g clip-path="url(#clip0_1927_12274)"><g clip-path="url(#clip1_1927_12274)" fill="#ff8000"><path d="M61.1 11.645a.444.444 0 00-.428-.57h-3.801L52.209 26.88l-1.77-7.677 5.42-7.403a.43.43 0 00.08-.16l.094-.325a.189.189 0 00-.183-.241h-3.862l-4.145 6.073 1.77-5.502a.445.445 0 00-.428-.571H45.36L42.053 22.31c.073-1.923-1.423-3.45-2.295-4.412-.704-.785-1.131-1.341-1.054-1.96a1.77 1.77 0 011.674-1.542c.95-.075 1.36.216 1.966.5a.49.49 0 00.576-.092.45.45 0 00.104-.176l.89-3.006-.617-.287-.089-.041-.029-.014a5.708 5.708 0 00-2.315-.453c-3.351 0-6.4 2.398-6.901 5.346-.352 2.06.97 3.52 1.936 4.585l.084.092c.698.748 1.181 1.33 1.067 2.004-.16.944-1.078 1.484-1.964 1.556-.974.08-1.58-.193-2.343-.528a.65.65 0 00-.44-.08.467.467 0 00-.311.305l-.849 2.904-.108.372s1.667.845 3.595.845c2.855 0 5.323-1.1 6.789-3.744l-.865 2.948a.446.446 0 00.427.572h3.823l.962-3.247 1.163-1.675.897 4.563a.444.444 0 00.436.359h8.036l4.807-16.36h-.006zM68.274 15.918c-.041.793-.342 1.81-.695 2.595-.472 1.054-.912 1.84-2.156 1.982H64.34l1.696-5.76 1.425.01a.72.72 0 01.528.206c.222.228.306.55.284.973v-.006zm3.049-3.571a3.92 3.92 0 00-2.925-1.275h-6.33l-.275.896a.297.297 0 00.034.246l.18.284a1.118 1.118 0 01.127.931l-4.105 13.999a.442.442 0 00.22.526c.061.032.13.05.198.05h3.682l1.15-3.889h1.662c4.01.053 6.043-2.764 6.948-5.824.37-1.251.55-2.15.54-2.747-.011-1.339-.34-2.347-1.106-3.193v-.004zM74.538 12.31l.225-1.118h.16l-.227 1.118h-.158zM75.906 11.47h-.23v.667h-.157v-.668h-.233v-.145h.62v.145zM76.862 11.324v.813h-.146l.003-.528-.214.437h-.11l-.212-.434.004.525h-.145v-.813h.165l.243.506.247-.506h.165zM73.34 11.324v.813h-.147l.005-.528-.215.437h-.11l-.211-.434.003.525h-.146v-.813h.165l.244.506.248-.506h.164zM73.842 12.156a.305.305 0 01-.34-.344v-.166a.306.306 0 01.341-.342.311.311 0 01.328.221l-.137.06a.183.183 0 00-.19-.138.167.167 0 00-.19.188v.183a.169.169 0 00.188.19.185.185 0 00.193-.147l.138.052a.306.306 0 01-.333.24l.002.003zM30.947 15.438c-.098-.254-1.448-2.747-3.954-5.874a.52.52 0 01-.117-.266 49.41 49.41 0 00-.754-5.424.884.884 0 00-.765-.686l-2.61-.315a.558.558 0 00-.068 0 .55.55 0 00-.55.55v.905a.034.034 0 01-.034.033.028.028 0 01-.02-.009 36.72 36.72 0 00-5.26-3.967 2.303 2.303 0 00-1.289-.39 2.303 2.303 0 00-1.288.39C5.256 5.923.309 14.943.118 15.438a.89.89 0 00.586 1.243l2.592.499a.89.89 0 01.648.755c.021.457.51 10.667 1.125 13.322a.891.891 0 00.861.662h.02c1.512-.037 2.895-.063 4.388-.082h.124a.29.29 0 00.289-.29v-.007c-.06-.891-.191-2.93-.297-5.075 0-.053 0-.122-.01-.176a.55.55 0 00-.263-.44 2.8 2.8 0 01-1.358-2.256c-.138-3.58-.205-7.717-.009-10.955a.52.52 0 111.041.062c-.127 2.159-.137 4.71-.092 7.228A.618.618 0 1011 19.906c-.046-2.534-.034-5.102.098-7.268a.52.52 0 011.04.062c-.128 2.148-.138 4.683-.094 7.188a.618.618 0 101.236-.02c-.045-2.522-.033-5.08.098-7.231a.521.521 0 011.04.021v.04c-.186 3.148-.126 7.132 0 10.628v.119a2.797 2.797 0 01-1.21 2.305.535.535 0 00-.231.412s-.065.535.173 3.137c.11 1.135.195 1.922.233 2.278a.275.275 0 00.275.239H17.586l1.468.012a.275.275 0 00.275-.241c.34-3.118.42-4.868.42-4.868a.308.308 0 00-.274-.3l-1.786-.246a.606.606 0 01-.51-.437.833.833 0 01-.021-.275c.722-10.388 4.147-13.889 4.147-13.889.05-.051.107-.097.167-.137a.549.549 0 01.832.244c.026.08.04.165.045.249.296 3.266.151 8.823-.031 13.157-.156 3.68-.344 6.566-.344 6.566v.007a.214.214 0 00.215.214 330 330 0 012.943.06h.001a.891.891 0 00.861-.661c.615-2.648 1.099-12.858 1.125-13.322a.889.889 0 01.648-.756l2.59-.498a.89.89 0 00.67-.864.9.9 0 00-.08-.393z"></path></g></g><defs><clipPath id="clip0_1927_12274"><rect fill="#fff" height="212" rx="5" width="76.91"></rect></clipPath><clipPath id="clip1_1927_12274"><path d="M0 0h76.91v32H0z" fill="#fff"></path></clipPath></defs></svg>